<?xml version="1.0" encoding="UTF-8" standalone="no"?>
<!DOCTYPE svg PUBLIC "-//W3C//DTD SVG 1.1//EN"
 "http://www.w3.org/Graphics/SVG/1.1/DTD/svg11.dtd">
<!-- Generated by graphviz version 2.50.0 (20211204.2007)
 -->
<!-- Title: daddy Pages: 1 -->
<svg width="3256pt" height="404pt"
 viewBox="0.00 0.00 3255.94 404.00" xmlns="http://www.w3.org/2000/svg" xmlns:xlink="http://www.w3.org/1999/xlink">
<g id="graph0" class="graph" transform="scale(1 1) rotate(0) translate(4 400)">
<title>daddy</title>
<polygon fill="white" stroke="transparent" points="-4,4 -4,-400 3251.94,-400 3251.94,4 -4,4"/>
<!-- Wallace Freemon -->
<g id="node1" class="node">
<title>Wallace Freemon</title>
<ellipse fill="none" stroke="black" cx="425.5" cy="-306" rx="74.19" ry="18"/>
<text text-anchor="middle" x="425.5" y="-302.3" font-family="Times New Roman,serif" font-size="14.00">Wallace Freemon</text>
</g>
<!-- Moira -->
<g id="node2" class="node">
<title>Moira</title>
<ellipse fill="none" stroke="black" cx="32.5" cy="-234" rx="32.49" ry="18"/>
<text text-anchor="middle" x="32.5" y="-230.3" font-family="Times New Roman,serif" font-size="14.00">Moira</text>
</g>
<!-- Wallace Freemon&#45;&#45;Moira -->
<g id="edge1" class="edge">
<title>Wallace Freemon&#45;&#45;Moira</title>
<path fill="none" stroke="black" d="M356.23,-299.38C284.71,-292.45 170.35,-278.24 74.5,-252 68.73,-250.42 62.69,-248.28 57.04,-246.05"/>
</g>
<!-- Keegan Brown -->
<g id="node5" class="node">
<title>Keegan Brown</title>
<ellipse fill="none" stroke="black" cx="147.5" cy="-234" rx="64.19" ry="18"/>
<text text-anchor="middle" x="147.5" y="-230.3" font-family="Times New Roman,serif" font-size="14.00">Keegan Brown</text>
</g>
<!-- Wallace Freemon&#45;&#45;Keegan Brown -->
<g id="edge3" class="edge">
<title>Wallace Freemon&#45;&#45;Keegan Brown</title>
<path fill="none" stroke="black" d="M376.12,-292.57C324.47,-279.56 244.05,-259.31 193.65,-246.62"/>
</g>
<!-- Kevin Barnes -->
<g id="node6" class="node">
<title>Kevin Barnes</title>
<ellipse fill="none" stroke="black" cx="288.5" cy="-234" rx="59.29" ry="18"/>
<text text-anchor="middle" x="288.5" y="-230.3" font-family="Times New Roman,serif" font-size="14.00">Kevin Barnes</text>
</g>
<!-- Wallace Freemon&#45;&#45;Kevin Barnes -->
<g id="edge4" class="edge">
<title>Wallace Freemon&#45;&#45;Kevin Barnes</title>
<path fill="none" stroke="black" d="M395.09,-289.46C371.92,-277.62 340.21,-261.42 317.41,-249.77"/>
</g>
<!-- Seth Rickerts -->
<g id="node10" class="node">
<title>Seth Rickerts</title>
<ellipse fill="none" stroke="black" cx="425.5" cy="-234" rx="59.59" ry="18"/>
<text text-anchor="middle" x="425.5" y="-230.3" font-family="Times New Roman,serif" font-size="14.00">Seth Rickerts</text>
</g>
<!-- Wallace Freemon&#45;&#45;Seth Rickerts -->
<g id="edge23" class="edge">
<title>Wallace Freemon&#45;&#45;Seth Rickerts</title>
<path fill="none" stroke="black" d="M425.5,-287.7C425.5,-276.85 425.5,-262.92 425.5,-252.1"/>
</g>
<!-- Mary Kennamer -->
<g id="node26" class="node">
<title>Mary Kennamer</title>
<ellipse fill="none" stroke="black" cx="572.5" cy="-234" rx="68.79" ry="18"/>
<text text-anchor="middle" x="572.5" y="-230.3" font-family="Times New Roman,serif" font-size="14.00">Mary Kennamer</text>
</g>
<!-- Wallace Freemon&#45;&#45;Mary Kennamer -->
<g id="edge17" class="edge">
<title>Wallace Freemon&#45;&#45;Mary Kennamer</title>
<path fill="none" stroke="black" d="M457.76,-289.64C482.44,-277.89 516.28,-261.77 540.82,-250.09"/>
</g>
<!-- Lory Willard -->
<g id="node27" class="node">
<title>Lory Willard</title>
<ellipse fill="none" stroke="black" cx="716.5" cy="-234" rx="57.39" ry="18"/>
<text text-anchor="middle" x="716.5" y="-230.3" font-family="Times New Roman,serif" font-size="14.00">Lory Willard</text>
</g>
<!-- Wallace Freemon&#45;&#45;Lory Willard -->
<g id="edge25" class="edge">
<title>Wallace Freemon&#45;&#45;Lory Willard</title>
<path fill="none" stroke="black" d="M477.4,-293.1C523.05,-282.55 591.27,-266.6 650.5,-252 658.08,-250.13 666.14,-248.1 673.93,-246.1"/>
</g>
<!-- Kelly Shull -->
<g id="node3" class="node">
<title>Kelly Shull</title>
<ellipse fill="none" stroke="black" cx="425.5" cy="-162" rx="50.09" ry="18"/>
<text text-anchor="middle" x="425.5" y="-158.3" font-family="Times New Roman,serif" font-size="14.00">Kelly Shull</text>
</g>
<!-- Bobby Shull -->
<g id="node4" class="node">
<title>Bobby Shull</title>
<ellipse fill="none" stroke="black" cx="293.5" cy="-90" rx="55.79" ry="18"/>
<text text-anchor="middle" x="293.5" y="-86.3" font-family="Times New Roman,serif" font-size="14.00">Bobby Shull</text>
</g>
<!-- Kelly Shull&#45;&#45;Bobby Shull -->
<g id="edge2" class="edge">
<title>Kelly Shull&#45;&#45;Bobby Shull</title>
<path fill="none" stroke="black" d="M398.47,-146.67C375.99,-134.75 344.12,-117.84 321.4,-105.8"/>
</g>
<!-- April Winters -->
<g id="node9" class="node">
<title>April Winters</title>
<ellipse fill="none" stroke="black" cx="427.5" cy="-90" rx="59.59" ry="18"/>
<text text-anchor="middle" x="427.5" y="-86.3" font-family="Times New Roman,serif" font-size="14.00">April Winters</text>
</g>
<!-- Kelly Shull&#45;&#45;April Winters -->
<g id="edge6" class="edge">
<title>Kelly Shull&#45;&#45;April Winters</title>
<path fill="none" stroke="black" d="M425.99,-143.7C426.3,-132.85 426.7,-118.92 427.01,-108.1"/>
</g>
<!-- John Lee -->
<g id="node7" class="node">
<title>John Lee</title>
<ellipse fill="none" stroke="black" cx="1042.5" cy="-162" rx="43.59" ry="18"/>
<text text-anchor="middle" x="1042.5" y="-158.3" font-family="Times New Roman,serif" font-size="14.00">John Lee</text>
</g>
<!-- Scott McDaniel -->
<g id="node8" class="node">
<title>Scott McDaniel</title>
<ellipse fill="none" stroke="black" cx="1042.5" cy="-90" rx="67.69" ry="18"/>
<text text-anchor="middle" x="1042.5" y="-86.3" font-family="Times New Roman,serif" font-size="14.00">Scott McDaniel</text>
</g>
<!-- John Lee&#45;&#45;Scott McDaniel -->
<g id="edge5" class="edge">
<title>John Lee&#45;&#45;Scott McDaniel</title>
<path fill="none" stroke="black" d="M1042.5,-143.7C1042.5,-132.85 1042.5,-118.92 1042.5,-108.1"/>
</g>
<!-- Seth Rickerts&#45;&#45;Kelly Shull -->
<g id="edge7" class="edge">
<title>Seth Rickerts&#45;&#45;Kelly Shull</title>
<path fill="none" stroke="black" d="M425.5,-215.7C425.5,-204.85 425.5,-190.92 425.5,-180.1"/>
</g>
<!-- Shauna Rickerts -->
<g id="node11" class="node">
<title>Shauna Rickerts</title>
<ellipse fill="none" stroke="black" cx="576.5" cy="-162" rx="69.59" ry="18"/>
<text text-anchor="middle" x="576.5" y="-158.3" font-family="Times New Roman,serif" font-size="14.00">Shauna Rickerts</text>
</g>
<!-- Alexis Chandik -->
<g id="node12" class="node">
<title>Alexis Chandik</title>
<ellipse fill="none" stroke="black" cx="575.5" cy="-90" rx="65.79" ry="18"/>
<text text-anchor="middle" x="575.5" y="-86.3" font-family="Times New Roman,serif" font-size="14.00">Alexis Chandik</text>
</g>
<!-- Shauna Rickerts&#45;&#45;Alexis Chandik -->
<g id="edge8" class="edge">
<title>Shauna Rickerts&#45;&#45;Alexis Chandik</title>
<path fill="none" stroke="black" d="M576.25,-143.7C576.09,-132.85 575.9,-118.92 575.74,-108.1"/>
</g>
<!-- Michael Bennett -->
<g id="node13" class="node">
<title>Michael Bennett</title>
<ellipse fill="none" stroke="black" cx="818.5" cy="-306" rx="68.79" ry="18"/>
<text text-anchor="middle" x="818.5" y="-302.3" font-family="Times New Roman,serif" font-size="14.00">Michael Bennett</text>
</g>
<!-- Fiona Kirk -->
<g id="node14" class="node">
<title>Fiona Kirk</title>
<ellipse fill="none" stroke="black" cx="841.5" cy="-234" rx="49.29" ry="18"/>
<text text-anchor="middle" x="841.5" y="-230.3" font-family="Times New Roman,serif" font-size="14.00">Fiona Kirk</text>
</g>
<!-- Michael Bennett&#45;&#45;Fiona Kirk -->
<g id="edge9" class="edge">
<title>Michael Bennett&#45;&#45;Fiona Kirk</title>
<path fill="none" stroke="black" d="M824.06,-288.05C827.63,-277.21 832.24,-263.18 835.82,-252.28"/>
</g>
<!-- Andrew Nagler -->
<g id="node15" class="node">
<title>Andrew Nagler</title>
<ellipse fill="none" stroke="black" cx="1434.5" cy="-234" rx="65.79" ry="18"/>
<text text-anchor="middle" x="1434.5" y="-230.3" font-family="Times New Roman,serif" font-size="14.00">Andrew Nagler</text>
</g>
<!-- Heather Doyle -->
<g id="node16" class="node">
<title>Heather Doyle</title>
<ellipse fill="none" stroke="black" cx="1434.5" cy="-162" rx="62.29" ry="18"/>
<text text-anchor="middle" x="1434.5" y="-158.3" font-family="Times New Roman,serif" font-size="14.00">Heather Doyle</text>
</g>
<!-- Andrew Nagler&#45;&#45;Heather Doyle -->
<g id="edge10" class="edge">
<title>Andrew Nagler&#45;&#45;Heather Doyle</title>
<path fill="none" stroke="black" d="M1434.5,-215.7C1434.5,-204.85 1434.5,-190.92 1434.5,-180.1"/>
</g>
<!-- Kevin Boodtama -->
<g id="node17" class="node">
<title>Kevin Boodtama</title>
<ellipse fill="none" stroke="black" cx="1970.5" cy="-378" rx="71.49" ry="18"/>
<text text-anchor="middle" x="1970.5" y="-374.3" font-family="Times New Roman,serif" font-size="14.00">Kevin Boodtama</text>
</g>
<!-- Kevin Boodtama&#45;&#45;Wallace Freemon -->
<g id="edge47" class="edge">
<title>Kevin Boodtama&#45;&#45;Wallace Freemon</title>
<path fill="none" stroke="black" d="M1900.45,-374.25C1712.59,-366.81 1181.88,-345.42 740.5,-324 656.8,-319.94 560.63,-314.66 496.8,-311.07"/>
</g>
<!-- Kevin Boodtama&#45;&#45;Michael Bennett -->
<g id="edge46" class="edge">
<title>Kevin Boodtama&#45;&#45;Michael Bennett</title>
<path fill="none" stroke="black" d="M1898.81,-377.54C1725.7,-377.96 1271.48,-373.77 896.5,-324 886.88,-322.72 876.69,-320.87 866.96,-318.86"/>
</g>
<!-- Jennifer Mcphatter -->
<g id="node18" class="node">
<title>Jennifer Mcphatter</title>
<ellipse fill="none" stroke="black" cx="983.5" cy="-306" rx="77.99" ry="18"/>
<text text-anchor="middle" x="983.5" y="-302.3" font-family="Times New Roman,serif" font-size="14.00">Jennifer Mcphatter</text>
</g>
<!-- Kevin Boodtama&#45;&#45;Jennifer Mcphatter -->
<g id="edge11" class="edge">
<title>Kevin Boodtama&#45;&#45;Jennifer Mcphatter</title>
<path fill="none" stroke="black" d="M1899.32,-376.05C1746.8,-373.3 1377.37,-362.84 1070.5,-324 1060.11,-322.69 1049.11,-320.87 1038.55,-318.91"/>
</g>
<!-- Isaiah Coleman -->
<g id="node19" class="node">
<title>Isaiah Coleman</title>
<ellipse fill="none" stroke="black" cx="1145.5" cy="-306" rx="66.09" ry="18"/>
<text text-anchor="middle" x="1145.5" y="-302.3" font-family="Times New Roman,serif" font-size="14.00">Isaiah Coleman</text>
</g>
<!-- Kevin Boodtama&#45;&#45;Isaiah Coleman -->
<g id="edge41" class="edge">
<title>Kevin Boodtama&#45;&#45;Isaiah Coleman</title>
<path fill="none" stroke="black" d="M1899.54,-375.58C1765.95,-372.12 1468.27,-360.62 1220.5,-324 1211.38,-322.65 1201.73,-320.8 1192.5,-318.8"/>
</g>
<!-- Michaiah Coleman -->
<g id="node31" class="node">
<title>Michaiah Coleman</title>
<ellipse fill="none" stroke="black" cx="1307.5" cy="-306" rx="77.99" ry="18"/>
<text text-anchor="middle" x="1307.5" y="-302.3" font-family="Times New Roman,serif" font-size="14.00">Michaiah Coleman</text>
</g>
<!-- Kevin Boodtama&#45;&#45;Michaiah Coleman -->
<g id="edge40" class="edge">
<title>Kevin Boodtama&#45;&#45;Michaiah Coleman</title>
<path fill="none" stroke="black" d="M1901.52,-372.92C1793.17,-366 1576.66,-350.11 1394.5,-324 1384.29,-322.54 1373.47,-320.68 1363.05,-318.72"/>
</g>
<!-- Isaac Miller -->
<g id="node32" class="node">
<title>Isaac Miller</title>
<ellipse fill="none" stroke="black" cx="1456.5" cy="-306" rx="52.79" ry="18"/>
<text text-anchor="middle" x="1456.5" y="-302.3" font-family="Times New Roman,serif" font-size="14.00">Isaac Miller</text>
</g>
<!-- Kevin Boodtama&#45;&#45;Isaac Miller -->
<g id="edge42" class="edge">
<title>Kevin Boodtama&#45;&#45;Isaac Miller</title>
<path fill="none" stroke="black" d="M1902.62,-372.25C1813.76,-365.31 1653.44,-350.26 1518.5,-324 1510.72,-322.49 1502.49,-320.5 1494.65,-318.43"/>
</g>
<!-- Nathan Mooney -->
<g id="node34" class="node">
<title>Nathan Mooney</title>
<ellipse fill="none" stroke="black" cx="1596.5" cy="-306" rx="68.79" ry="18"/>
<text text-anchor="middle" x="1596.5" y="-302.3" font-family="Times New Roman,serif" font-size="14.00">Nathan Mooney</text>
</g>
<!-- Kevin Boodtama&#45;&#45;Nathan Mooney -->
<g id="edge43" class="edge">
<title>Kevin Boodtama&#45;&#45;Nathan Mooney</title>
<path fill="none" stroke="black" d="M1912.8,-367.33C1853.06,-357.16 1757.07,-340.38 1674.5,-324 1665.66,-322.25 1656.28,-320.29 1647.21,-318.34"/>
</g>
<!-- Mike D&#39;Argenio -->
<g id="node36" class="node">
<title>Mike D&#39;Argenio</title>
<ellipse fill="none" stroke="black" cx="1751.5" cy="-306" rx="68.49" ry="18"/>
<text text-anchor="middle" x="1751.5" y="-302.3" font-family="Times New Roman,serif" font-size="14.00">Mike D&#39;Argenio</text>
</g>
<!-- Kevin Boodtama&#45;&#45;Mike D&#39;Argenio -->
<g id="edge36" class="edge">
<title>Kevin Boodtama&#45;&#45;Mike D&#39;Argenio</title>
<path fill="none" stroke="black" d="M1928.01,-363.42C1889.08,-350.98 1831.78,-332.66 1793.12,-320.3"/>
</g>
<!-- Andrew Clegg -->
<g id="node38" class="node">
<title>Andrew Clegg</title>
<ellipse fill="none" stroke="black" cx="1900.5" cy="-306" rx="63.09" ry="18"/>
<text text-anchor="middle" x="1900.5" y="-302.3" font-family="Times New Roman,serif" font-size="14.00">Andrew Clegg</text>
</g>
<!-- Kevin Boodtama&#45;&#45;Andrew Clegg -->
<g id="edge37" class="edge">
<title>Kevin Boodtama&#45;&#45;Andrew Clegg</title>
<path fill="none" stroke="black" d="M1953.91,-360.41C1942.75,-349.25 1928.1,-334.6 1916.97,-323.47"/>
</g>
<!-- Mark Hatcher -->
<g id="node40" class="node">
<title>Mark Hatcher</title>
<ellipse fill="none" stroke="black" cx="2041.5" cy="-306" rx="60.39" ry="18"/>
<text text-anchor="middle" x="2041.5" y="-302.3" font-family="Times New Roman,serif" font-size="14.00">Mark Hatcher</text>
</g>
<!-- Kevin Boodtama&#45;&#45;Mark Hatcher -->
<g id="edge31" class="edge">
<title>Kevin Boodtama&#45;&#45;Mark Hatcher</title>
<path fill="none" stroke="black" d="M1987.32,-360.41C1998.64,-349.25 2013.5,-334.6 2024.79,-323.47"/>
</g>
<!-- Emmy Wingfield -->
<g id="node41" class="node">
<title>Emmy Wingfield</title>
<ellipse fill="none" stroke="black" cx="2191.5" cy="-306" rx="71.49" ry="18"/>
<text text-anchor="middle" x="2191.5" y="-302.3" font-family="Times New Roman,serif" font-size="14.00">Emmy Wingfield</text>
</g>
<!-- Kevin Boodtama&#45;&#45;Emmy Wingfield -->
<g id="edge32" class="edge">
<title>Kevin Boodtama&#45;&#45;Emmy Wingfield</title>
<path fill="none" stroke="black" d="M2013.11,-363.5C2052.12,-351.15 2109.55,-332.95 2148.64,-320.57"/>
</g>
<!-- Kevin Kane -->
<g id="node42" class="node">
<title>Kevin Kane</title>
<ellipse fill="none" stroke="black" cx="2333.5" cy="-306" rx="52.79" ry="18"/>
<text text-anchor="middle" x="2333.5" y="-302.3" font-family="Times New Roman,serif" font-size="14.00">Kevin Kane</text>
</g>
<!-- Kevin Boodtama&#45;&#45;Kevin Kane -->
<g id="edge33" class="edge">
<title>Kevin Boodtama&#45;&#45;Kevin Kane</title>
<path fill="none" stroke="black" d="M2030.5,-368.12C2091.49,-358.71 2188.53,-342.64 2271.5,-324 2279.01,-322.31 2286.98,-320.3 2294.61,-318.26"/>
</g>
<!-- Chris Montenyohl -->
<g id="node43" class="node">
<title>Chris Montenyohl</title>
<ellipse fill="none" stroke="black" cx="2480.5" cy="-306" rx="76.09" ry="18"/>
<text text-anchor="middle" x="2480.5" y="-302.3" font-family="Times New Roman,serif" font-size="14.00">Chris Montenyohl</text>
</g>
<!-- Kevin Boodtama&#45;&#45;Chris Montenyohl -->
<g id="edge34" class="edge">
<title>Kevin Boodtama&#45;&#45;Chris Montenyohl</title>
<path fill="none" stroke="black" d="M2035.51,-370.39C2119.07,-361.55 2268.52,-344.59 2395.5,-324 2405.3,-322.41 2415.7,-320.51 2425.74,-318.57"/>
</g>
<!-- Mike Miller -->
<g id="node44" class="node">
<title>Mike Miller</title>
<ellipse fill="none" stroke="black" cx="2626.5" cy="-306" rx="51.99" ry="18"/>
<text text-anchor="middle" x="2626.5" y="-302.3" font-family="Times New Roman,serif" font-size="14.00">Mike Miller</text>
</g>
<!-- Kevin Boodtama&#45;&#45;Mike Miller -->
<g id="edge35" class="edge">
<title>Kevin Boodtama&#45;&#45;Mike Miller</title>
<path fill="none" stroke="black" d="M2041.13,-374.88C2153.13,-370.6 2378.02,-358.18 2565.5,-324 2573.18,-322.6 2581.29,-320.67 2589,-318.61"/>
</g>
<!-- Mark Stumpf -->
<g id="node45" class="node">
<title>Mark Stumpf</title>
<ellipse fill="none" stroke="black" cx="2755.5" cy="-306" rx="59.29" ry="18"/>
<text text-anchor="middle" x="2755.5" y="-302.3" font-family="Times New Roman,serif" font-size="14.00">Mark Stumpf</text>
</g>
<!-- Kevin Boodtama&#45;&#45;Mark Stumpf -->
<g id="edge38" class="edge">
<title>Kevin Boodtama&#45;&#45;Mark Stumpf</title>
<path fill="none" stroke="black" d="M2041.69,-375.77C2171.07,-372.63 2453.04,-361.69 2687.5,-324 2695.91,-322.65 2704.8,-320.76 2713.29,-318.74"/>
</g>
<!-- Sara Reichelt -->
<g id="node46" class="node">
<title>Sara Reichelt</title>
<ellipse fill="none" stroke="black" cx="2891.5" cy="-306" rx="58.49" ry="18"/>
<text text-anchor="middle" x="2891.5" y="-302.3" font-family="Times New Roman,serif" font-size="14.00">Sara Reichelt</text>
</g>
<!-- Kevin Boodtama&#45;&#45;Sara Reichelt -->
<g id="edge39" class="edge">
<title>Kevin Boodtama&#45;&#45;Sara Reichelt</title>
<path fill="none" stroke="black" d="M2042.02,-376.96C2189.21,-375.9 2536.28,-368.44 2823.5,-324 2832.04,-322.68 2841.07,-320.78 2849.66,-318.73"/>
</g>
<!-- Alexa Merrill -->
<g id="node47" class="node">
<title>Alexa Merrill</title>
<ellipse fill="none" stroke="black" cx="3025.5" cy="-306" rx="57.39" ry="18"/>
<text text-anchor="middle" x="3025.5" y="-302.3" font-family="Times New Roman,serif" font-size="14.00">Alexa Merrill</text>
</g>
<!-- Kevin Boodtama&#45;&#45;Alexa Merrill -->
<g id="edge44" class="edge">
<title>Kevin Boodtama&#45;&#45;Alexa Merrill</title>
<path fill="none" stroke="black" d="M2041.28,-375C2236.77,-369.18 2781.35,-350.96 2958.5,-324 2967.04,-322.7 2976.08,-320.79 2984.65,-318.71"/>
</g>
<!-- Mandi Geiselman -->
<g id="node48" class="node">
<title>Mandi Geiselman</title>
<ellipse fill="none" stroke="black" cx="3174.5" cy="-306" rx="73.39" ry="18"/>
<text text-anchor="middle" x="3174.5" y="-302.3" font-family="Times New Roman,serif" font-size="14.00">Mandi Geiselman</text>
</g>
<!-- Kevin Boodtama&#45;&#45;Mandi Geiselman -->
<g id="edge45" class="edge">
<title>Kevin Boodtama&#45;&#45;Mandi Geiselman</title>
<path fill="none" stroke="black" d="M2041.97,-377.44C2220.02,-377.72 2697.36,-373.38 3091.5,-324 3101.71,-322.72 3112.55,-320.87 3122.9,-318.85"/>
</g>
<!-- Eric Henry -->
<g id="node20" class="node">
<title>Eric Henry</title>
<ellipse fill="none" stroke="black" cx="1027.5" cy="-234" rx="50.09" ry="18"/>
<text text-anchor="middle" x="1027.5" y="-230.3" font-family="Times New Roman,serif" font-size="14.00">Eric Henry</text>
</g>
<!-- Isaiah Coleman&#45;&#45;Eric Henry -->
<g id="edge12" class="edge">
<title>Isaiah Coleman&#45;&#45;Eric Henry</title>
<path fill="none" stroke="black" d="M1119.02,-289.29C1099.04,-277.44 1071.83,-261.3 1052.28,-249.7"/>
</g>
<!-- Chloe Madden -->
<g id="node21" class="node">
<title>Chloe Madden</title>
<ellipse fill="none" stroke="black" cx="723.5" cy="-90" rx="64.19" ry="18"/>
<text text-anchor="middle" x="723.5" y="-86.3" font-family="Times New Roman,serif" font-size="14.00">Chloe Madden</text>
</g>
<!-- Jasmine George -->
<g id="node22" class="node">
<title>Jasmine George</title>
<ellipse fill="none" stroke="black" cx="723.5" cy="-18" rx="68.49" ry="18"/>
<text text-anchor="middle" x="723.5" y="-14.3" font-family="Times New Roman,serif" font-size="14.00">Jasmine George</text>
</g>
<!-- Chloe Madden&#45;&#45;Jasmine George -->
<g id="edge13" class="edge">
<title>Chloe Madden&#45;&#45;Jasmine George</title>
<path fill="none" stroke="black" d="M723.5,-71.7C723.5,-60.85 723.5,-46.92 723.5,-36.1"/>
</g>
<!-- Brian Kirst -->
<g id="node23" class="node">
<title>Brian Kirst</title>
<ellipse fill="none" stroke="black" cx="716.5" cy="-162" rx="50.09" ry="18"/>
<text text-anchor="middle" x="716.5" y="-158.3" font-family="Times New Roman,serif" font-size="14.00">Brian Kirst</text>
</g>
<!-- Brian Kirst&#45;&#45;Chloe Madden -->
<g id="edge14" class="edge">
<title>Brian Kirst&#45;&#45;Chloe Madden</title>
<path fill="none" stroke="black" d="M718.23,-143.7C719.31,-132.85 720.71,-118.92 721.79,-108.1"/>
</g>
<!-- Asa Price -->
<g id="node24" class="node">
<title>Asa Price</title>
<ellipse fill="none" stroke="black" cx="1141.5" cy="-234" rx="46.29" ry="18"/>
<text text-anchor="middle" x="1141.5" y="-230.3" font-family="Times New Roman,serif" font-size="14.00">Asa Price</text>
</g>
<!-- Asa Price&#45;&#45;John Lee -->
<g id="edge16" class="edge">
<title>Asa Price&#45;&#45;John Lee</title>
<path fill="none" stroke="black" d="M1120.02,-217.81C1103.3,-205.99 1080.22,-189.67 1063.6,-177.92"/>
</g>
<!-- Rose Lee -->
<g id="node25" class="node">
<title>Rose Lee</title>
<ellipse fill="none" stroke="black" cx="1149.5" cy="-162" rx="45.49" ry="18"/>
<text text-anchor="middle" x="1149.5" y="-158.3" font-family="Times New Roman,serif" font-size="14.00">Rose Lee</text>
</g>
<!-- Asa Price&#45;&#45;Rose Lee -->
<g id="edge15" class="edge">
<title>Asa Price&#45;&#45;Rose Lee</title>
<path fill="none" stroke="black" d="M1143.47,-215.7C1144.71,-204.85 1146.31,-190.92 1147.54,-180.1"/>
</g>
<!-- Lory Willard&#45;&#45;Shauna Rickerts -->
<g id="edge20" class="edge">
<title>Lory Willard&#45;&#45;Shauna Rickerts</title>
<path fill="none" stroke="black" d="M687.15,-218.33C663.74,-206.62 631.04,-190.27 607.26,-178.38"/>
</g>
<!-- Lory Willard&#45;&#45;Brian Kirst -->
<g id="edge22" class="edge">
<title>Lory Willard&#45;&#45;Brian Kirst</title>
<path fill="none" stroke="black" d="M716.5,-215.7C716.5,-204.85 716.5,-190.92 716.5,-180.1"/>
</g>
<!-- Hugo Monsalvez -->
<g id="node28" class="node">
<title>Hugo Monsalvez</title>
<ellipse fill="none" stroke="black" cx="856.5" cy="-162" rx="72.29" ry="18"/>
<text text-anchor="middle" x="856.5" y="-158.3" font-family="Times New Roman,serif" font-size="14.00">Hugo Monsalvez</text>
</g>
<!-- Lory Willard&#45;&#45;Hugo Monsalvez -->
<g id="edge18" class="edge">
<title>Lory Willard&#45;&#45;Hugo Monsalvez</title>
<path fill="none" stroke="black" d="M745.85,-218.33C769.26,-206.62 801.96,-190.27 825.73,-178.38"/>
</g>
<!-- Jonathan Coburn -->
<g id="node29" class="node">
<title>Jonathan Coburn</title>
<ellipse fill="none" stroke="black" cx="1278.5" cy="-234" rx="72.59" ry="18"/>
<text text-anchor="middle" x="1278.5" y="-230.3" font-family="Times New Roman,serif" font-size="14.00">Jonathan Coburn</text>
</g>
<!-- Sara Coburn -->
<g id="node30" class="node">
<title>Sara Coburn</title>
<ellipse fill="none" stroke="black" cx="1278.5" cy="-162" rx="57.39" ry="18"/>
<text text-anchor="middle" x="1278.5" y="-158.3" font-family="Times New Roman,serif" font-size="14.00">Sara Coburn</text>
</g>
<!-- Jonathan Coburn&#45;&#45;Sara Coburn -->
<g id="edge19" class="edge">
<title>Jonathan Coburn&#45;&#45;Sara Coburn</title>
<path fill="none" stroke="black" d="M1278.5,-215.7C1278.5,-204.85 1278.5,-190.92 1278.5,-180.1"/>
</g>
<!-- Michaiah Coleman&#45;&#45;Asa Price -->
<g id="edge24" class="edge">
<title>Michaiah Coleman&#45;&#45;Asa Price</title>
<path fill="none" stroke="black" d="M1271.89,-289.98C1242.07,-277.41 1199.98,-259.66 1171.76,-247.76"/>
</g>
<!-- Michaiah Coleman&#45;&#45;Jonathan Coburn -->
<g id="edge21" class="edge">
<title>Michaiah Coleman&#45;&#45;Jonathan Coburn</title>
<path fill="none" stroke="black" d="M1300.48,-288.05C1295.98,-277.21 1290.17,-263.18 1285.65,-252.28"/>
</g>
<!-- Isaac Miller&#45;&#45;Andrew Nagler -->
<g id="edge27" class="edge">
<title>Isaac Miller&#45;&#45;Andrew Nagler</title>
<path fill="none" stroke="black" d="M1451.17,-288.05C1447.76,-277.21 1443.35,-263.18 1439.93,-252.28"/>
</g>
<!-- Shannon Zacco -->
<g id="node33" class="node">
<title>Shannon Zacco</title>
<ellipse fill="none" stroke="black" cx="1585.5" cy="-234" rx="67.69" ry="18"/>
<text text-anchor="middle" x="1585.5" y="-230.3" font-family="Times New Roman,serif" font-size="14.00">Shannon Zacco</text>
</g>
<!-- Isaac Miller&#45;&#45;Shannon Zacco -->
<g id="edge26" class="edge">
<title>Isaac Miller&#45;&#45;Shannon Zacco</title>
<path fill="none" stroke="black" d="M1483.54,-290.33C1505.11,-278.62 1535.24,-262.27 1557.15,-250.38"/>
</g>
<!-- Alex Penn -->
<g id="node35" class="node">
<title>Alex Penn</title>
<ellipse fill="none" stroke="black" cx="1719.5" cy="-234" rx="48.19" ry="18"/>
<text text-anchor="middle" x="1719.5" y="-230.3" font-family="Times New Roman,serif" font-size="14.00">Alex Penn</text>
</g>
<!-- Nathan Mooney&#45;&#45;Alex Penn -->
<g id="edge28" class="edge">
<title>Nathan Mooney&#45;&#45;Alex Penn</title>
<path fill="none" stroke="black" d="M1623.79,-289.46C1644.74,-277.54 1673.46,-261.2 1693.96,-249.54"/>
</g>
<!-- Matt Rodwell -->
<g id="node37" class="node">
<title>Matt Rodwell</title>
<ellipse fill="none" stroke="black" cx="1845.5" cy="-234" rx="59.59" ry="18"/>
<text text-anchor="middle" x="1845.5" y="-230.3" font-family="Times New Roman,serif" font-size="14.00">Matt Rodwell</text>
</g>
<!-- Mike D&#39;Argenio&#45;&#45;Matt Rodwell -->
<g id="edge29" class="edge">
<title>Mike D&#39;Argenio&#45;&#45;Matt Rodwell</title>
<path fill="none" stroke="black" d="M1773.3,-288.76C1788.59,-277.38 1808.94,-262.22 1824.14,-250.91"/>
</g>
<!-- Beth Sherling -->
<g id="node39" class="node">
<title>Beth Sherling</title>
<ellipse fill="none" stroke="black" cx="1982.5" cy="-234" rx="59.29" ry="18"/>
<text text-anchor="middle" x="1982.5" y="-230.3" font-family="Times New Roman,serif" font-size="14.00">Beth Sherling</text>
</g>
<!-- Andrew Clegg&#45;&#45;Beth Sherling -->
<g id="edge30" class="edge">
<title>Andrew Clegg&#45;&#45;Beth Sherling</title>
<path fill="none" stroke="black" d="M1919.52,-288.76C1932.76,-277.46 1950.36,-262.44 1963.58,-251.15"/>
</g>
</g>
</svg>
